<?xml version="1.0" encoding="UTF-8"?>
<svg id="Layer_2" data-name="Layer 2" xmlns="http://www.w3.org/2000/svg" viewBox="0 0 243.62 91.51">
  <defs>
    <style>
      .cls-1 {
        fill: #3f3f3f;
      }
    </style>
  </defs>
  <g id="Layer_1-2" data-name="Layer 1">
    <g>
      <path class="cls-1" d="M76.13,60.52c0-2.8-.36-5.21-.71-6.89,8.07-3.34,20.89-12.12,30.7-19.26,3.27-2.38,7.27-3.66,11.26-3.61,32.03.43,107.01-4.15,107.76-4.2l.93-.06.7-.62,13.08-11.71,3.77-3.37-4.9-1.24C201.89.27,99.11,6.45,94.75,6.72c-2.66.16-5.21,1.08-7.38,2.64l-5.58,4.04c-3.36-4.76-8.39-8.42-14.72-10.69C59.88.15,50.98-.62,41.32.5,24.47,2.46,0,15.91,0,32.55c0,2.44.54,4.84,1.61,7.15,4.64,10,17.68,10.99,27.68,10.1-9.55,7.37-14.38,14.42-14.38,21.03,0,2.38.64,4.67,1.9,6.81,3.64,6.17,9.78,10.84,16.84,12.81,5.95,1.66,15.54,2.22,27.42-4.54,12.44-7.07,15.05-17.7,15.05-25.37ZM67.55,38.59c-5.76,3.72-12.22,6.06-19.33,6.99,6.04-1.85,12.87-4.2,19.33-6.99ZM190.29,25.79c2.17-.27,4.43-.54,6.7-.78,11.24-1.26,22.57-1.86,22.57-1.86,0,0-10.21-.33-20.97-.1,14.63-2.4,28.1-5,34.25-6.21l-7.87,7.04s-15.11.93-34.68,1.91ZM79.5,14.84c.35.66.85,1.69,1.22,2.82.67,1.88.94,3.92.94,3.92,0,0,.32-2.03.2-4.13,0-.24-.03-.48-.05-.72l7.14-5.17c1.75-1.26,3.81-2.01,5.96-2.14,17.18-1.06,104.11-5.42,139.94,2.03-8.55,3.02-34.92,10.52-96.52,15.67l-2.19-18.47-1.35,18.76c-2.9.23-5.88.46-8.93.68-3.05.02-5.88.02-8.45-.01-4.63-.06-9.14,1.4-12.88,4.12-4.82,3.52-11.94,8.55-18.64,12.71-5.28,3.1-11.33,4.97-13.1,5.48-1.16-1.69-2.41-3.17-2.41-3.17,0,0,.88,1.94,1.55,3.92.23.66.43,1.33.6,1.92.36,1.43.91,4.13.91,7.46,0,4.59-1.04,10.36-5,15.6-5.69,7.04-16.45,10.65-26.14,9.97-11.71-.83-23.49-8.46-19.78-20.1,3.71-11.64,19.91-16.13,30-18.44h0c12.44-2.6,20.57-9.01,25.21-13.97,2.25-1.85,4.83-4.04,7.35-6.3,1.67-1.5,3.32-3.02,4.83-4.48.76-.73,1.49-1.43,2.17-2.12.68-.69,1.33-1.32,1.9-1.93,1.17-1.21,2.12-2.23,2.77-2.96.66-.72,1.03-1.14,1.03-1.14,0,0-.42.37-1.15,1.02-.72.66-1.78,1.57-3.06,2.64-.63.55-1.35,1.1-2.09,1.71-.74.61-1.54,1.22-2.37,1.86-1.65,1.28-3.44,2.6-5.24,3.9-3.61,2.6-7.31,5.06-10.11,6.85-.09.06-.17.11-.26.16-.74.39-1.5.76-2.27,1.14-14.99,6.05-41.98,13.77-56.7,10.02-15.11-3.84-10.35-19.58-.57-29.31h0c7.92-6.08,18.66-10.44,27.68-11.49,17.4-2.02,31.17,2.29,37.87,11.67Z"/>
      <path class="cls-1" d="M62.63,63.39c-1.57-6.56-8.96-10.6-17.48-10.12,2.57-.44,4.82-.45,6.48-.31,1.08.09,1.93.21,2.51.33.58.12.88.18.88.18,0,0-.3-.11-.85-.3-.56-.18-1.39-.45-2.48-.66-2.16-.44-5.4-.72-9.19-.02-1.88.39-3.93.89-5.95,1.84-2.02.91-4.08,2.13-5.92,3.76-1.84,1.63-3.53,3.63-4.63,6.05l-.22.45-.17.47-.34.95c-.18.65-.33,1.31-.45,1.98l-.1,1.02c-.01.17-.04.34-.04.51v.54s.05,1.08.05,1.08c.03.33.1.62.14.94.21,1.38.75,2.66,1.37,3.88.71,1.17,1.51,2.28,2.49,3.18,1.92,1.86,4.27,3.07,6.6,3.85,2.34.78,4.72,1.06,6.94,1.07.56,0,1.11,0,1.64-.04.54-.05,1.07-.05,1.59-.14.52-.08,1.03-.16,1.54-.25.5-.08.95-.22,1.41-.32,1.88-.42,3.53-1.06,4.93-1.73,1.41-.65,2.56-1.38,3.47-2,.91-.63,1.57-1.2,2.01-1.6.43-.4.66-.61.66-.61,0,0-.26.18-.74.52-.48.33-1.22.78-2.17,1.3-.96.51-2.15,1.07-3.57,1.58-1.41.51-3.05.97-4.86,1.24-.46.07-.94.17-1.41.21-.47.04-.94.08-1.43.12-.48.04-.99.02-1.49.04-.02,0-.05,0-.07,0,1.17-.11,2.36-.3,3.55-.59,9.16-2.2,15.58-8.96,15.58-15.85h-2.69c0,5.69-5.81,11.38-13.52,13.23-8.83,2.12-17.23-1.23-18.73-7.47-.15-.63-.23-1.27-.23-1.92,0-5.69,5.81-11.38,13.52-13.23,4.41-1.06,8.84-.78,12.46.77,3.35,1.44,5.58,3.82,6.27,6.7.15.63.23,1.27.23,1.92h2.69s0,0,0,0c0-.85-.1-1.7-.3-2.55Z"/>
      <path class="cls-1" d="M115.47,17.95c0,4.19,3.41,7.61,7.61,7.61s7.61-3.41,7.61-7.61-3.41-7.61-7.61-7.61-7.61,3.41-7.61,7.61ZM129.14,17.95c0,3.35-2.72,6.07-6.07,6.07s-6.07-2.72-6.07-6.07,2.72-6.07,6.07-6.07,6.07,2.72,6.07,6.07Z"/>
      <path class="cls-1" d="M117.47,17.95c0,3.03,2.45,5.48,5.48,5.48s-2.91-.84-3.01-5.48c-.1-4.93,6.04-5.48,3.01-5.48s-5.48,2.45-5.48,5.48Z"/>
      <path class="cls-1" d="M123.13,17.85c0,1.08.07,2.16.16,2.97.09.81.22,1.35.22,1.35,0,0,.13-.54.22-1.35.1-.81.16-1.89.16-2.97,0-1.08-.07-2.16-.16-2.97-.09-.81-.22-1.35-.22-1.35,0,0-.13.54-.22,1.35-.1.81-.16,1.89-.16,2.97Z"/>
      <path class="cls-1" d="M137.88,11.76c0,.5-.02,1.09.01,1.72.03.63.06,1.29.1,1.96.07.67.13,1.33.2,1.95.06.62.18,1.2.25,1.7.07.5.18.91.23,1.2.07.29.11.45.11.45,0,0,.01-.17.04-.46,0-.29.05-.72.05-1.22,0-.5.02-1.09-.01-1.72-.03-.63-.06-1.29-.1-1.96-.07-.67-.13-1.33-.2-1.95-.06-.62-.18-1.2-.25-1.7-.07-.5-.18-.91-.23-1.2-.07-.29-.11-.45-.11-.45,0,0-.01.17-.04.46,0,.29-.05.72-.05,1.22Z"/>
      <path class="cls-1" d="M114.71,20.87c-.26-.69-.43-1.47-.47-2.24-.11-.77-.08-1.56.04-2.29.07-.74.26-1.43.47-2.01.18-.6.4-1.08.57-1.41.15-.35.26-.54.26-.54,0,0-.19.12-.5.36-.29.26-.69.65-1.1,1.2-.37.57-.74,1.29-1.01,2.12-.22.84-.32,1.78-.27,2.72.13.93.4,1.83.77,2.62.42.76.92,1.4,1.39,1.89.51.46.98.77,1.31.97.35.18.55.26.55.26,0,0-.14-.17-.36-.49-.23-.29-.54-.73-.83-1.28-.32-.52-.63-1.17-.84-1.88Z"/>
      <path class="cls-1" d="M71.28,42.84c1.37-.89,2.82-1.87,4.26-2.87,1.39-1.06,2.76-2.15,4.03-3.18,1.23-1.08,2.37-2.11,3.32-3,.93-.93,1.69-1.72,2.21-2.27.51-.57.8-.9.8-.9,0,0-.36.25-.99.68-.62.45-1.5,1.09-2.57,1.83-1.04.79-2.27,1.68-3.59,2.62-1.3.98-2.7,1.99-4.11,2.99-1.38,1.04-2.77,2.07-4.1,3-1.3.98-2.52,1.87-3.59,2.62-1.04.8-1.91,1.44-2.53,1.89-.6.47-.95.74-.95.74,0,0,.4-.18,1.1-.49.69-.33,1.67-.81,2.84-1.42,1.14-.64,2.46-1.41,3.87-2.25Z"/>
      <path class="cls-1" d="M17.78,16.21c-.38.23-.78.45-1.15.71l-1.1.8c-2.94,2.11-5.74,4.74-7.58,8.13l-.66,1.28-.49,1.37c-.08.23-.17.45-.23.69l-.15.72c-.08.48-.22.95-.25,1.44-.22,1.94.04,3.93.72,5.76.17.46.35.91.61,1.33l.36.64.05.08.02.04c.04.05-.05-.06.09.13l.1.13.21.26.42.51c.19.18.4.36.61.54.21.17.42.37.62.5l.63.38c1.69.97,3.5,1.39,5.23,1.66,1.74.26,3.45.31,5.11.25,1.66-.04,3.26-.21,4.81-.4,1.55-.2,3.05-.46,4.49-.75,1.44-.31,2.8-.63,4.11-.94,5.25-1.23,9.59-2.42,12.6-3.32,1.51-.44,2.68-.82,3.49-1.08.8-.26,1.23-.4,1.23-.4,0,0-1.76.38-4.83,1.03-3.07.64-7.47,1.5-12.76,2.47-2.66.49-5.49,1-8.52,1.27-.82.07-1.65.13-2.49.17,2.52-.21,5.02-.61,7.25-1.07,10.21-2.11,41.38-8.51,43.2-17.34.12-.6.18-1.2.18-1.79,0-7.95-11.03-14.75-28.02-13.15,4-.65,7.44-.83,9.97-.78,1.56.02,2.79.1,3.63.18.84.09,1.28.13,1.28.13,0,0-.44-.09-1.27-.26-.83-.15-2.05-.37-3.62-.51-3.14-.32-7.7-.37-13.08.46-2.69.41-5.58,1.02-8.57,1.89-3.02.92-6.05,1.88-9.24,3.27-.39.17-.8.32-1.19.5-.39.19-.78.38-1.17.57-.78.38-1.57.77-2.36,1.16-.77.44-1.53.9-2.3,1.36ZM67.13,15.02c1.78,1.3,3.9,3.46,3.9,6.38,0,.41-.04.83-.13,1.24-.2.96-1.97,4.47-16.47,9.12-9.09,2.91-19.46,5.06-24.45,6.09l-.2.04c-9.54,1.97-17.18,1.42-18.99-1.38-.74-1.14-1.15-2.6-1.15-4.1,0-3.41,2.24-12.05,22.95-18.68,16.8-5.38,28.86-2.86,34.55,1.29Z"/>
      <path class="cls-1" d="M97.48,19.03c-.78.9-1.57,1.78-2.32,2.6-.75.83-1.44,1.6-2.04,2.26-.59.67-1.09,1.22-1.44,1.61-.34.39-.54.62-.54.62,0,0,.23-.19.64-.51.4-.34.99-.8,1.64-1.41.66-.61,1.44-1.31,2.22-2.11.78-.8,1.6-1.67,2.41-2.55.78-.91,1.54-1.82,2.25-2.69.7-.87,1.31-1.73,1.83-2.45.53-.72.92-1.36,1.21-1.8.28-.44.43-.7.43-.7,0,0-.2.22-.55.61-.34.39-.84.95-1.43,1.62-.59.67-1.27,1.45-2.01,2.29-.73.84-1.51,1.73-2.31,2.61Z"/>
      <path class="cls-1" d="M214.42,14.3c-2.03.35-4.23.72-6.56,1.12-2.33.37-4.79.76-7.33,1.17-2.55.39-5.18.79-7.85,1.2-2.68.39-5.39.81-8.11,1.17-2.72.39-5.44.79-8.12,1.14-2.68.37-5.32.73-7.87,1.08-5.11.69-9.87,1.33-13.96,1.88-4.09.56-7.49,1.02-9.88,1.35-2.38.34-3.75.54-3.75.54,0,0,1.37-.09,3.78-.24,2.4-.18,5.83-.39,9.94-.77,2.06-.17,4.28-.37,6.63-.62,2.35-.24,4.83-.48,7.4-.79,2.56-.3,5.21-.59,7.9-.95,2.69-.34,5.41-.71,8.14-1.1,5.45-.79,10.89-1.64,15.97-2.56,2.54-.43,4.99-.93,7.31-1.37,2.32-.47,4.51-.92,6.52-1.38,2.02-.43,3.86-.89,5.49-1.29,1.63-.42,3.04-.77,4.21-1.1,1.17-.3,2.07-.59,2.69-.77.62-.18.95-.28.95-.28,0,0-1.35.28-3.7.76-2.35.5-5.74,1.1-9.79,1.82Z"/>
      <path class="cls-1" d="M69.71,50.97c.2.77.35,1.69.55,2.66.18.97.33,2.02.44,3.07.13,1.05.22,2.1.26,3.09.03.99.09,1.92.06,2.71,0,.79,0,1.46-.03,1.93,0,.47-.01.74-.01.74,0,0,.06-.26.16-.72.09-.46.23-1.12.31-1.92.09-.8.17-1.74.17-2.75,0-1.01-.06-2.09-.16-3.16-.14-1.07-.33-2.13-.55-3.12-.23-.98-.52-1.88-.78-2.64-.26-.76-.54-1.37-.73-1.8-.2-.42-.32-.66-.32-.66,0,0,.07.26.18.71.13.45.27,1.1.46,1.87Z"/>
      <path class="cls-1" d="M75.66,12.81c.42.61.83,1.38,1.3,2.18.45.81.89,1.7,1.27,2.61.41.9.77,1.82,1.06,2.7.28.88.57,1.7.74,2.43.18.72.35,1.33.43,1.76.1.43.15.67.15.67,0,0,0-.25,0-.69-.02-.44-.04-1.08-.16-1.82-.11-.75-.26-1.63-.52-2.54-.27-.91-.61-1.87-.99-2.81-.43-.92-.91-1.82-1.4-2.63-.5-.81-1.04-1.52-1.52-2.1-.47-.59-.93-1.03-1.24-1.35-.32-.3-.51-.47-.51-.47,0,0,.14.21.39.57.26.35.6.88,1.01,1.5Z"/>
      <path class="cls-1" d="M101.78,31.76c-1.08.77-2.34,1.67-3.7,2.63-1.34.97-2.79,2-4.24,3.01-1.43,1.04-2.87,2.06-4.23,3.01-1.35.96-2.61,1.86-3.7,2.63-1.08.78-1.98,1.42-2.61,1.88-.63.46-.98.72-.98.72,0,0,.39-.22,1.06-.6.67-.39,1.64-.93,2.77-1.64,1.13-.71,2.45-1.51,3.83-2.44,1.38-.93,2.84-1.93,4.3-2.94,1.43-1.04,2.86-2.1,4.19-3.1,1.33-1,2.53-1.99,3.56-2.82,1.04-.83,1.87-1.57,2.46-2.07.58-.51.91-.81.91-.81,0,0-.37.25-1.01.69-.63.45-1.54,1.08-2.63,1.85Z"/>
    </g>
  </g>
</svg>