<?xml version="1.0" encoding="UTF-8"?>
<svg id="Layer_2" data-name="Layer 2" xmlns="http://www.w3.org/2000/svg" viewBox="0 0 97.17 61.18">
  <defs>
    <style>
      .cls-1 {
        fill: #404040;
      }
    </style>
  </defs>
  <g id="Layer_1-2" data-name="Layer 1">
    <g>
      <path class="cls-1" d="M95.2,38.46c-1.61-.71-4.56-1.66-5.89-1.6v-12.71c0-.36-.3-.66-.66-.66-.17,0-.33.07-.45.18v-5.62c0-1.18-.96-2.14-2.14-2.14h-3.43c-.06,0-.12.01-.18.02V6.83c0-1.91-1.55-3.46-3.46-3.46s-3.46,1.55-3.46,3.46v4.43h-7.06s-.07,0-.1,0c-.23-.33-.47-.64-.75-.92-1.4-1.42-3.33-2.11-5.9-2.11-.41,0-.82,0-1.23.02V.62c0-.34-.28-.62-.62-.62s-.62.28-.62.62v7.69c-2.44.13-4.85.45-7.71.82-6.03.79-14.28,1.87-28.91,1.87-3.18,0-6.41-4.58-7.38-6.35-.22-.39-.63-.64-1.08-.64h-2.36v-.9c.06-.02.12-.04.17-.07.21-.1.36-.24.36-.24,0,0-.14-.14-.36-.24-.21-.11-.5-.17-.78-.18-.29,0-.57.07-.78.18-.21.1-.36.24-.36.24,0,0,.14.14.36.24.05.03.11.05.17.07v.9h-.93c-.68,0-1.24.55-1.24,1.24v27.7c0,.65.5,1.18,1.14,1.23l.47,7.86h-.34c-.03-.14-.07-.26-.13-.37-.1-.21-.24-.36-.24-.36,0,0-.14.14-.24.36-.11.21-.17.5-.18.78,0,.29.07.57.18.78.1.21.24.36.24.36,0,0,.14-.14.24-.36.06-.11.1-.24.13-.37h.39l.2,3.27.5-8.29h.41c.03.14.07.26.13.37.1.21.24.36.24.36,0,0,.14-.14.24-.36.11-.21.17-.5.18-.78,0-.29-.07-.57-.18-.78-.1-.21-.24-.36-.24-.36,0,0-.14.14-.24.36-.06.11-.1.24-.13.37h-.36l.17-2.84h2.79c.59,0,1.1-.42,1.21-1,.61-3.18,3.17-11.44,7.65-11.44h.75s1.01,0,1.01,0c2.82,0,10.3,0,16.79.62,9.53.91,11.57,2.63,12,3.33.47.75,1.25,3.47-1.48,12.67-.99,3.33-2.14,6.46-2.85,8.32H2.43c-1.34,0-2.43,1.09-2.43,2.43v9.65c0,1.34,1.09,2.43,2.43,2.43h87.02c1.34,0,2.43-1.09,2.43-2.43v-9.65c0-1.34-1.09-2.43-2.43-2.43h-17.74c-.23-1.03-.51-2.6-.74-4.87h2.12c1.18,0,2.14-.96,2.14-2.14v-5.59h10.72c.06,0,.12-.01.18-.03.82-.03,1.52-.52,1.85-1.22v4.29c0,.37.3.66.66.66.08,0,.15-.02.22-.04.82,1.01,3.58,2.57,5.21,3.28,2.03.89,2.66.48,2.96-.23.31-.7.18-1.45-1.84-2.33ZM73.92,33.55v3.45c-1.18-1.81-1.67-3.41-1.87-4.27h1.05c.45,0,.82.37.82.82ZM90.56,49.1v.41h-3.81c-4.6,0-8.55-.97-10.41-1.52h13.11c.61,0,1.11.5,1.11,1.11ZM2.43,47.99h45.92c-.1.25-.16.4-.16.41,0,.02,0,.04-.02.06-4.3.5-11.07,1.06-20.22,1.06H1.32v-.41c0-.61.5-1.11,1.11-1.11ZM79,4.85c1.1,0,1.99.89,1.99,1.99v.51c-.16,4.78-.43,8.37-.75,11.04l-.55-12.02-.84,18.28c-.95,1.87-1.83.08-1.83-1.31V6.83c0-1.1.89-1.99,1.99-1.99ZM69.91,42.14c.07.79.15,1.53.23,2.22.09.68.18,1.31.28,1.87.1.55.2,1.03.29,1.43.1.39.18.7.25.9.06.21.11.31.11.31,0,0-.21-.42-.44-1.19-.11-.39-.24-.87-.36-1.42-.06-.28-.12-.57-.18-.88-.05-.31-.11-.64-.17-.98-.1-.69-.21-1.43-.3-2.22-.09-.79-.18-1.63-.24-2.49-.03-.43-.06-.87-.09-1.32-.02-.45-.04-.9-.07-1.35-.05-.91-.06-1.84-.1-2.76-.02-1.85,0-3.7.02-5.43.03-1.73.07-3.35.09-4.73.02-1.39.04-2.54.03-3.35-.01-.81-.02-1.27-.02-1.27,0,0,.18,1.84.22,4.62.02,1.39.04,3,.03,4.74-.01,1.73,0,3.58.04,5.42.02.92.03,1.85.07,2.75.02.45.04.9.05,1.35.03.44.05.88.08,1.31.06.86.11,1.7.18,2.49ZM61.91,60.21c-5.1.02-10.54.04-15.98.05-5.44-.02-10.88-.04-15.98-.05-5.1-.01-9.86-.09-13.94-.13-4.08-.04-7.48-.12-9.86-.15-2.38-.05-3.74-.08-3.74-.08,0,0,1.36-.03,3.74-.08,2.38-.03,5.78-.11,9.86-.15,4.08-.03,8.84-.11,13.94-.13,5.1-.02,10.54-.04,15.98-.05,5.44.02,10.88.04,15.98.05,5.1.02,9.86.09,13.94.13,4.08.04,7.48.12,9.86.15,2.38.05,3.74.08,3.74.08,0,0-1.36.03-3.74.08-2.38.03-5.78.11-9.86.15-4.08.03-8.84.11-13.94.13ZM85.71,50.76c-2.38.03-5.78.11-9.86.15-4.08.03-8.84.11-13.94.13-5.1.02-10.54.04-15.98.05-5.44-.02-10.88-.04-15.98-.05-5.1-.01-9.86-.09-13.94-.13-4.08-.04-7.48-.12-9.86-.15-2.38-.05-3.74-.08-3.74-.08,0,0,1.36-.03,3.74-.08,2.38-.03,5.78-.11,9.86-.15,4.08-.03,8.84-.11,13.94-.13,5.1-.02,10.54-.04,15.98-.05,5.44.02,10.88.04,15.98.05,5.1.02,9.86.09,13.94.13,4.08.04,7.48.12,9.86.15,2.38.05,3.74.08,3.74.08,0,0-1.36.03-3.74.08ZM47.49,22.15c-.85-.17-1.76-.29-2.7-.43-1.88-.26-3.9-.45-5.92-.59-2.02-.16-4.05-.26-5.95-.33-1.9-.07-3.68-.14-5.2-.17-3.05-.08-5.08-.13-5.08-.13,0,0,.51-.01,1.4-.04.89-.02,2.16-.06,3.68-.06,1.52,0,3.3-.01,5.21.04,1.9.05,3.94.14,5.97.28,2.03.16,4.05.36,5.94.64.94.14,1.85.3,2.71.49.86.18,1.66.4,2.39.61.73.23,1.39.47,1.95.74.14.07.28.13.41.19.13.07.25.14.37.21.24.13.44.27.62.41.19.12.33.26.45.39.06.06.12.12.17.17.05.05.08.11.12.16.14.19.21.3.21.3,0,0-.08-.1-.23-.28-.04-.04-.08-.1-.13-.15-.06-.05-.12-.1-.18-.16-.13-.11-.27-.24-.47-.36-.18-.13-.39-.26-.63-.37-.12-.06-.24-.13-.37-.19-.13-.06-.27-.11-.41-.17-.57-.24-1.23-.44-1.96-.66-.73-.19-1.53-.38-2.39-.54ZM16.1,13.04c.08.07.17.14.24.23l.22.24c.08.08.13.17.2.26.07.08.13.16.18.26l.16.27.14.28c.05.09.08.19.11.29.04.1.07.19.1.29.03.1.06.2.08.3.05.2.07.41.1.61.02.21.03.41.03.62,0,.1,0,.21,0,.31,0,.02,0,.05,0,.07-.23.1-.48.18-.74.24-.17.04-.34.06-.52.09-.17.03-.36.05-.52.05h-.03c-.08.01-.17.02-.26.02-.09,0-.18.01-.27.02-.18.01-.36,0-.54,0-.37,0-.73-.05-1.1-.14.28.23.63.39.99.5-.41-.06-.87-.16-1.29-.35-.07-.59-.3-3.6,2.44-5.08.59.32,1.04.71,1.39,1.13-.03-.03-.07-.06-.1-.09-.09-.07-.18-.15-.29-.21l-.31-.18c-.2-.11-.43-.18-.65-.26l.25.23ZM14.27,20.53c.87,0,1.62.49,1.99,1.21-.15-.24-.34-.44-.54-.58-.19-.14-.39-.23-.58-.28-.18-.06-.34-.07-.47-.08-.14,0-.23.01-.3.03-.07.01-.1.02-.1.02,0,0,.03.01.1.03.07.01.16.05.27.09.22.09.51.27.75.56.24.29.41.69.41,1.11,0,.03,0,.06,0,.08-.02-.83-.69-1.49-1.53-1.49s-1.53.69-1.53,1.53.64,1.48,1.45,1.52c-.02,0-.03,0-.05,0-.2,0-.41-.04-.6-.11-.19-.08-.36-.18-.5-.3-.29-.24-.46-.53-.56-.75-.04-.11-.08-.2-.09-.27-.02-.07-.03-.1-.03-.1,0,0,0,.04-.02.1-.01.07-.02.17-.03.3,0,.26.07.66.36,1.05.14.19.33.38.56.53-.71-.37-1.2-1.12-1.2-1.98,0-1.24,1-2.24,2.24-2.24ZM55.99,14.17c-1.18.25-2.41.52-3.71.76-1.3.23-2.64.44-4.01.64-1.37.18-2.77.33-4.17.47-1.4.13-2.8.22-4.18.29-1.38.07-2.74.11-4.06.11-2.63.02-5.09-.07-7.19-.26-2.1-.17-3.84-.45-5.04-.7-.6-.13-1.07-.27-1.38-.37-.31-.11-.47-.17-.47-.17,0,0,.17.05.49.13.32.08.79.16,1.4.25,1.21.18,2.95.3,5.04.38,2.09.07,4.53.07,7.15,0,1.31-.04,2.66-.1,4.03-.18,1.37-.08,2.76-.19,4.15-.31,1.39-.12,2.78-.26,4.14-.43,1.36-.16,2.7-.34,3.99-.55,1.29-.2,2.54-.42,3.72-.63,1.19-.21,2.32-.37,3.36-.51,2.09-.26,3.84-.38,5.07-.39.61,0,1.1.03,1.43.06.33.04.5.07.5.07,0,0-.17-.02-.5-.03-.33-.01-.81,0-1.42.04-.61.04-1.35.12-2.19.23-.84.11-1.79.27-2.82.44-1.03.18-2.14.4-3.32.64ZM66.44,24.36s0,0,0-.01c-.18-.3-.42-.53-.65-.7-.24-.17-.48-.29-.7-.35-.22-.07-.42-.08-.58-.09-.17,0-.29.01-.37.03-.08.02-.13.02-.13.02,0,0,.04.01.12.04.08.02.2.07.33.11.13.06.29.14.45.25.16.11.32.26.47.43.14.18.27.39.36.61.09.23.13.49.14.74,0,.03,0,.07,0,.1-.03-1.01-.85-1.82-1.86-1.82s-1.87.84-1.87,1.87.78,1.81,1.77,1.86c-.02,0-.04,0-.06,0-.24,0-.5-.05-.73-.14-.23-.09-.44-.22-.61-.36-.17-.15-.32-.3-.43-.47-.11-.16-.19-.32-.25-.45-.05-.14-.1-.25-.11-.33-.02-.08-.04-.12-.04-.12,0,0,0,.04-.02.13-.02.08-.03.21-.03.37,0,.16.02.36.09.58.06.22.17.47.35.7.17.24.4.46.69.65-.87-.46-1.47-1.37-1.47-2.42,0-1.51,1.22-2.73,2.73-2.73,1.06,0,1.98.61,2.43,1.49ZM73.1,31.4h-2.55c0-1.29.01-2.54.02-3.75.02-2,.03-3.85,0-5.57h4.97v4.43c0,1.91,1.55,3.46,3.46,3.46.53,0,1.04-.13,1.49-.34v2.28c0,.3.06.58.17.84h-5.58c-.32-.79-1.09-1.34-1.98-1.34ZM86.88,18.04v5.29l-.93-5.67-.68,4.18c-1.76-2.44-2.3-3.9-2.47-4.62h3.26c.45,0,.82.37.82.82ZM75.54,13.75v.95h-5.7c-.17-.68-.38-1.32-.63-1.91h5.21l-3.53.41,4.64.54ZM60.13,9.76c-1,.05-1.66.1-1.66.1,0,0,.66.08,1.64.22.98.15,2.28.37,3.48.81.88.31,1.68.75,2.29,1.19-2.02-.32-5.18-.16-10.15.71-14.58,2.55-30.71,2.36-34.69.92-3.55-1.28-6.27-4.84-6.68-8.14.82,1.37,4.25,6.66,8.28,6.66,23.63,0,30.42-2.76,39.08-2.76,1.51,0,2.73.27,3.7.78-.51-.16-1.05-.29-1.6-.36-1.37-.21-2.71-.17-3.71-.13ZM10.78,26.56l-.59-19.96-.54,18.01V5.24h1.13v21.31ZM53.59,36.23c1.01-3.3,1.98-7.55,1.91-11.04.25.63.49,1.3.72,2.01.45,1.42.83,2.98,1.11,4.56.56,3.16.67,6.41.62,8.84-.02,1.22-.08,2.23-.12,2.94-.05.71-.08,1.11-.08,1.11,0,0,.06-.4.17-1.11.1-.7.24-1.71.36-2.93.24-2.43.4-5.71.08-9-.1-1.01-.24-2.01-.41-2.99,1.13,4.56,1.71,10.96.83,19.69l10.87.56h-20.32s2.62-6.36,4.27-12.65ZM96.53,40.74s.05-.12-.02-.3c-.06-.18-.25-.37-.53-.54-.14-.08-.29-.16-.47-.25-.18-.07-.36-.15-.56-.23-.19-.08-.41-.15-.61-.24-.21-.08-.42-.16-.64-.24-.43-.17-.86-.33-1.26-.49-.4-.16-.77-.32-1.09-.46-.64-.28-1.05-.51-1.05-.51,0,0,.47.03,1.16.18.34.07.74.17,1.16.29.42.12.86.27,1.3.43.44.17.87.35,1.26.56.2.1.38.21.56.33.16.11.33.23.46.37.27.25.43.57.43.8,0,.23-.11.32-.11.32Z"/>
      <path class="cls-1" d="M51.33,47.24s.11-.19.31-.51c.19-.33.45-.81.74-1.39.28-.59.57-1.29.88-2.05.27-.77.55-1.6.79-2.44.21-.85.39-1.7.54-2.5.12-.81.21-1.57.27-2.22.04-.65.05-1.2.06-1.58,0-.38-.01-.6-.01-.6,0,0-.05.21-.15.58-.08.37-.2.9-.36,1.53-.13.63-.31,1.36-.51,2.14-.18.78-.4,1.61-.63,2.43-.21.83-.44,1.66-.68,2.42-.22.77-.43,1.5-.64,2.11-.18.62-.34,1.14-.46,1.5-.11.37-.17.58-.17.58Z"/>
      <path class="cls-1" d="M77.77,6.14c.11-.1.23-.2.37-.29.14-.09.29-.18.46-.23.16-.07.33-.08.5-.1.08,0,.17,0,.24,0,.08,0,.15.02.23.02.14,0,.26.04.35.05.09.01.14.02.14.02,0,0-.04-.04-.11-.09-.07-.05-.17-.15-.32-.2-.07-.03-.15-.08-.24-.1-.09-.02-.18-.05-.29-.06-.1,0-.21-.02-.32,0-.11.02-.22.03-.33.07-.11.04-.21.09-.3.14-.1.05-.17.13-.25.19-.15.14-.26.29-.33.43-.15.28-.17.49-.17.49,0,0,.14-.16.35-.35Z"/>
    </g>
  </g>
</svg>